<svg width="18" height="16" viewBox="0 0 18 16" fill="none" xmlns="http://www.w3.org/2000/svg">
<path d="M10 3C10 2.44772 9.55228 2 9 2C8.44772 2 8 2.44772 8 3V4.97656L7.02344 5L6.83984 5.00391C5.258 5.08667 4 6.39678 4 8V12H3C2.44772 12 2 12.4477 2 13V14H16V13C16 12.4477 15.5523 12 15 12H14V8C14 6.39645 12.7415 5.08619 11.1592 5.00391L10.9766 5L10 4.97656V3ZM12 3.09961C14.2827 3.56314 16 5.58106 16 8V10.1738C17.1647 10.5859 18 11.6941 18 13V14C18 15.1046 17.1046 16 16 16H2C0.895431 16 0 15.1046 0 14V13C0 11.6941 0.835321 10.5859 2 10.1738V8C2 5.58106 3.71735 3.56314 6 3.09961V3C6 1.34315 7.34315 0 9 0C10.6569 0 12 1.34315 12 3V3.09961Z" fill="#FF4EDF"/>
</svg>
