<svg width="15" height="15" viewBox="0 0 15 15" fill="none" xmlns="http://www.w3.org/2000/svg">
<path d="M6.5 0C10.0899 0 13 2.91015 13 6.5C13 7.93401 12.5336 9.25809 11.7471 10.333L14.707 13.293L14.7754 13.3691C15.0957 13.7619 15.0731 14.3409 14.707 14.707C14.3409 15.0731 13.7619 15.0957 13.3691 14.7754L13.293 14.707L10.333 11.7471C9.25809 12.5336 7.93401 13 6.5 13C2.91015 13 0 10.0899 0 6.5C0 2.91015 2.91015 0 6.5 0ZM6.5 2C4.01472 2 2 4.01472 2 6.5C2 8.98528 4.01472 11 6.5 11C8.98528 11 11 8.98528 11 6.5C11 4.01472 8.98528 2 6.5 2Z" fill="#FF4EDF"/>
</svg>
